<svg id="itm-logo-secondary" height="40" viewBox="0 0 113 60">
                        <g fill="none" fill-rule="evenodd"><path fill="#FFF200" d="M.982 59.985h111.727V.157H.982z"></path><path fill="#000" d="M9.905 50.922h15.594V25.189H9.905z"></path><g fill="#000"><path d="M99.569 25.189c2.078 0 3.626 1.402 3.626 3.132v22.601H87.599l-.002-20.496h-3.822v20.508H68.18V30.426h-3.834v20.496H48.752V25.189h50.816z"></path><path d="M9.822 10.144h93.371v11.859h-58.27v28.919H29.328V22.003H9.822z"></path></g><g transform="translate(9 10.142)"><path fill="#FFF200" d="M3.24 6.027a5.561 5.561 0 1 1 11.123.001 5.561 5.561 0 0 1-11.123.001" mask="url(#b)"></path><path stroke="#FFF200" stroke-width=".106" d="M3.24 6.027a5.561 5.561 0 1 1 11.123.001 5.561 5.561 0 0 1-11.123.001z" mask="url(#d)"></path></g><path fill="#000" d="M107.746 47.527a1.329 1.329 0 0 0-.451-.063h-.19v.863h.302c.183 0 .324-.036.426-.108.1-.074.153-.19.153-.353 0-.163-.078-.277-.24-.339zm-1.42 2.388V46.94l.828.003c.369.001.573.002.614.004.234.02.43.07.586.153.264.146.396.383.396.71 0 .251-.068.432-.21.542a.985.985 0 0 1-.514.2c.186.04.328.096.423.172.173.141.26.363.26.667v.266c0 .03.003.057.006.088a.478.478 0 0 0 .023.086l.027.084h-.743a2.29 2.29 0 0 1-.05-.41 1.208 1.208 0 0 0-.05-.365.356.356 0 0 0-.217-.22.976.976 0 0 0-.266-.047l-.17-.01h-.163v1.052h-.78zm-.401-3.047c-.426.437-.64.955-.64 1.554 0 .621.217 1.15.65 1.584.433.434.955.651 1.567.651.608 0 1.129-.219 1.562-.654.43-.44.648-.966.648-1.58 0-.597-.216-1.115-.646-1.555a2.105 2.105 0 0 0-1.564-.669c-.617 0-1.143.223-1.577.67zm3.455 3.481a2.606 2.606 0 0 1-1.878.757c-.755 0-1.391-.258-1.908-.777-.517-.516-.775-1.152-.775-1.907 0-.784.279-1.435.837-1.954a2.623 2.623 0 0 1 1.846-.729c.739 0 1.372.262 1.896.787a2.58 2.58 0 0 1 .787 1.896 2.59 2.59 0 0 1-.805 1.927z"></path></g>
                    </svg>